<svg width="16" height="16" viewBox="0 0 16 16" fill="none" xmlns="http://www.w3.org/2000/svg">
    <path fill-rule="evenodd" clip-rule="evenodd" d="M3.33333 9.33341C2.59695 9.33341 2 8.73646 2 8.00008C2 7.2637 2.59695 6.66675 3.33333 6.66675C4.06971 6.66675 4.66667 7.2637 4.66667 8.00008C4.66667 8.73646 4.06971 9.33341 3.33333 9.33341ZM8 9.33341C7.26362 9.33341 6.66667 8.73646 6.66667 8.00008C6.66667 7.2637 7.26362 6.66675 8 6.66675C8.73638 6.66675 9.33333 7.2637 9.33333 8.00008C9.33333 8.73646 8.73638 9.33341 8 9.33341ZM11.3333 8.00008C11.3333 8.73646 11.9303 9.33341 12.6667 9.33341C13.403 9.33341 14 8.73646 14 8.00008C14 7.2637 13.403 6.66675 12.6667 6.66675C11.9303 6.66675 11.3333 7.2637 11.3333 8.00008Z" fill="#333333"/>
</svg>
